<?xml version="1.0" encoding="UTF-8" standalone="no"?>
<svg width="256px" height="256px" viewBox="0 0 256 256" version="1.1" xmlns="http://www.w3.org/2000/svg" xmlns:xlink="http://www.w3.org/1999/xlink" xmlns:sketch="http://www.bohemiancoding.com/sketch/ns">
    <!-- Generator: Sketch 3.4.2 (15855) - http://www.bohemiancoding.com/sketch -->
    <title>user</title>
    <desc>Created with Sketch.</desc>
    <defs></defs>
    <g id="Plugins-/-Social-Login" stroke="none" stroke-width="1" fill="none" fill-rule="evenodd" sketch:type="MSPage">
        <g id="user" sketch:type="MSArtboardGroup" fill="#D5D8DD">
            <path d="M235.273169,203.175995 C212.690657,191.8787 221.386519,200.524961 193.667891,188.963171 C165.949263,177.416582 159.382567,173.646763 159.382567,173.646763 L159.139581,147.169869 C159.139581,147.169869 169.521158,139.24717 172.761983,114.205238 C179.240598,116.090147 181.436583,106.565275 181.785876,100.478842 C182.168579,94.5991416 185.61898,76.266879 177.688524,77.9024938 C179.310456,65.6627444 180.583095,54.5995431 180.006003,48.7411236 C178.02263,28.1804118 163.889957,6.71068739 128.213538,5.14499664 C97.8828106,6.71372757 78.1918328,28.1956127 76.2054222,48.7563245 C75.6344052,54.614744 76.7977006,65.6688247 78.4196322,77.9298554 C70.4952513,76.2729594 73.9061672,94.6356237 74.2554596,100.512284 C74.6381626,106.598717 76.782514,116.157031 83.2793521,114.269082 C86.5049913,139.311013 96.886568,147.297556 96.886568,147.297556 L96.6253581,173.908219 C96.6253581,173.908219 90.0586615,177.939492 62.3400337,189.483041 C34.621406,201.047872 43.3142301,191.87566 20.7347562,203.172955 C-14.9477377,221.03399 -14.9477377,270.144997 -14.9477377,270.144997 L128.210501,270.144997 L270.952625,270.144997 C270.952625,270.144997 270.952625,221.03399 235.273169,203.175995 L235.273169,203.175995 Z" id="Shape" sketch:type="MSShapeGroup"></path>
        </g>
    </g>
</svg>