<?xml version="1.0" encoding="UTF-8" standalone="no"?>
<svg width="512px" height="512px" viewBox="0 0 512 512" version="1.1" xmlns="http://www.w3.org/2000/svg" xmlns:xlink="http://www.w3.org/1999/xlink" xmlns:sketch="http://www.bohemiancoding.com/sketch/ns">
    <!-- Generator: Sketch 3.4 (15575) - http://www.bohemiancoding.com/sketch -->
    <title>icon-mask</title>
    <desc>Created with Sketch.</desc>
    <defs></defs>
    <g id="Icons" stroke="none" stroke-width="1" fill="none" fill-rule="evenodd" sketch:type="MSPage">
        <g id="icon-mask" sketch:type="MSArtboardGroup" fill="#FFFFFF">
            <path d="M554.201648,250.619558 L502.436264,198.384691 L199.220641,198.384691 C173.296146,152.70973 124.643502,121.878168 68.7878232,122.000362 C-14.4265266,121.826717 -81.8134928,189.908262 -82,273.772171 C-81.8134928,357.83545 -14.4265266,425.910563 68.7878232,426.039189 C124.489151,425.949151 173.032463,395.214057 199.001977,349.661291 L259.989818,349.661291 L308.301604,301.362368 L345.262178,338.335805 L380.743558,302.847994 L417.202492,339.294066 L454.163066,302.352786 L491.12364,339.294066 L554.208079,276.235352 C563.321205,266.736349 563.552731,260.073542 554.201648,250.619558 L554.201648,250.619558 Z M2.76428854,313.703997 C-19.4750825,313.498196 -37.360476,295.40057 -37.154675,273.276962 C-37.360476,250.851084 -19.4750825,232.766321 2.76428854,232.869222 C24.6370765,232.753458 42.52247,250.851084 42.6896833,273.276962 C42.5289013,295.40057 24.6435078,313.491765 2.76428854,313.703997 L2.76428854,313.703997 Z" id="Shape" sketch:type="MSShapeGroup" transform="translate(239.564599, 274.019594) scale(-1, 1) rotate(-315.000000) translate(-239.564599, -274.019594) "></path>
        </g>
    </g>
</svg>