<?xml version="1.0" encoding="UTF-8" standalone="no"?>
<svg width="512px" height="512px" viewBox="0 0 512 512" version="1.1" xmlns="http://www.w3.org/2000/svg" xmlns:xlink="http://www.w3.org/1999/xlink" xmlns:sketch="http://www.bohemiancoding.com/sketch/ns">
    <!-- Generator: Sketch 3.3.3 (12072) - http://www.bohemiancoding.com/sketch -->
    <title>facebook</title>
    <desc>Created with Sketch.</desc>
    <defs></defs>
    <g id="Icons" stroke="none" stroke-width="1" fill="none" fill-rule="evenodd" sketch:type="MSPage">
        <g id="facebook" sketch:type="MSArtboardGroup">
            <rect id="Rectangle-17" fill="#3B5998" sketch:type="MSShapeGroup" x="0" y="0" width="512" height="512"></rect>
            <path d="M331.087513,106.06242 L292.184233,106 C248.477732,106 220.232671,134.978496 220.232671,179.830405 L220.232671,213.871165 L181.117162,213.871165 C177.737118,213.871165 175,216.611404 175,219.991448 L175,269.312631 C175,272.692675 177.740239,275.429793 181.117162,275.429793 L220.232671,275.429793 L220.232671,399.882838 C220.232671,403.262882 222.969789,406 226.349833,406 L277.384445,406 C280.764489,406 283.501607,403.259761 283.501607,399.882838 L283.501607,275.429793 L329.236759,275.429793 C332.616803,275.429793 335.353922,272.692675 335.353922,269.312631 L335.372648,219.991448 C335.372648,218.368528 334.7266,216.814269 333.581193,215.665741 C332.435785,214.517212 330.875285,213.871165 329.252364,213.871165 L283.501607,213.871165 L283.501607,185.014388 C283.501607,171.144658 286.806748,164.10368 304.874224,164.10368 L331.081271,164.094317 C334.458194,164.094317 337.195312,161.354078 337.195312,157.977154 L337.195312,112.179582 C337.195312,108.80578 334.461315,106.068662 331.087513,106.06242 L331.087513,106.06242 Z" id="Shape" fill="#FFFFFF" sketch:type="MSShapeGroup"></path>
        </g>
    </g>
</svg>