<?xml version="1.0" encoding="UTF-8" standalone="no"?>
<svg width="512px" height="512px" viewBox="0 0 512 512" version="1.1" xmlns="http://www.w3.org/2000/svg" xmlns:xlink="http://www.w3.org/1999/xlink" xmlns:sketch="http://www.bohemiancoding.com/sketch/ns">
    <!-- Generator: Sketch 3.3.3 (12072) - http://www.bohemiancoding.com/sketch -->
    <title>facebook</title>
    <desc>Created with Sketch.</desc>
    <defs></defs>
    <g id="Icons" stroke="none" stroke-width="1" fill="none" fill-rule="evenodd" sketch:type="MSPage">
        <g id="facebook" sketch:type="MSArtboardGroup" fill="#FFFFFF">
            <path d="M384.389355,0.106530175 L317.994424,0 C243.401995,0 195.197091,49.4566337 195.197091,126.003891 L195.197091,184.100122 L128.439957,184.100122 C122.671348,184.100122 118,188.776796 118,194.545405 L118,278.720223 C118,284.488832 122.676675,289.16018 128.439957,289.16018 L195.197091,289.16018 L195.197091,501.560043 C195.197091,507.328652 199.868439,512 205.637048,512 L292.736119,512 C298.504728,512 303.176076,507.323325 303.176076,501.560043 L303.176076,289.16018 L381.230736,289.16018 C386.999345,289.16018 391.670693,284.488832 391.670693,278.720223 L391.702652,194.545405 C391.702652,191.775621 390.600065,189.123019 388.645236,187.162864 C386.690407,185.202709 384.027153,184.100122 381.257368,184.100122 L303.176076,184.100122 L303.176076,134.851222 C303.176076,111.180217 308.816849,99.1636133 339.652008,99.1636133 L384.378702,99.1476338 C390.141985,99.1476338 394.813333,94.4709591 394.813333,88.7076766 L394.813333,10.5464873 C394.813333,4.78853136 390.147311,0.117183192 384.389355,0.106530175 L384.389355,0.106530175 Z" id="Shape" sketch:type="MSShapeGroup"></path>
        </g>
    </g>
</svg>