<?xml version="1.0" encoding="UTF-8" standalone="no"?>
<svg width="512px" height="512px" viewBox="0 0 512 512" version="1.1" xmlns="http://www.w3.org/2000/svg" xmlns:xlink="http://www.w3.org/1999/xlink" xmlns:sketch="http://www.bohemiancoding.com/sketch/ns">
    <!-- Generator: Sketch 3.3.3 (12072) - http://www.bohemiancoding.com/sketch -->
    <title>github</title>
    <desc>Created with Sketch.</desc>
    <defs></defs>
    <g id="Icons" stroke="none" stroke-width="1" fill="none" fill-rule="evenodd" sketch:type="MSPage">
        <g id="github" sketch:type="MSArtboardGroup" fill="#FFFFFF">
            <path d="M256.00212,6 C114.634585,6 0,120.609149 0,261.99788 C0,375.106322 73.3523991,471.066843 175.069874,504.917557 C187.864045,507.287319 192.561176,499.36409 192.561176,492.602426 C192.561176,486.497851 192.323776,466.331559 192.213554,444.940112 C120.993517,460.426231 105.965241,414.735185 105.965241,414.735185 C94.3199172,385.144955 77.5408156,377.276837 77.5408156,377.276837 C54.313757,361.387986 79.2916415,361.714411 79.2916415,361.714411 C104.998684,363.516108 118.53473,388.0955 118.53473,388.0955 C141.367535,427.232606 178.42315,415.917947 193.031737,409.376725 C195.329431,392.835024 201.963916,381.533082 209.285167,375.144475 C152.423598,368.671083 92.6496378,346.72005 92.6496378,248.627166 C92.6496378,220.677541 102.650118,197.840497 119.026487,179.912548 C116.368454,173.460352 107.605846,147.426885 121.506471,112.164488 C121.506471,112.164488 143.0039,105.284123 191.925283,138.40568 C212.345933,132.733513 234.246094,129.888951 256.00212,129.791447 C277.758145,129.888951 299.675264,132.733513 320.134067,138.40568 C368.9961,105.284123 390.463854,112.164488 390.463854,112.164488 C404.398394,147.426885 395.631546,173.460352 392.973513,179.912548 C409.388036,197.840497 419.320687,220.677541 419.320687,248.627166 C419.320687,346.953211 359.432267,368.603254 302.426562,374.940989 C311.608859,382.885415 319.790685,398.464798 319.790685,422.348946 C319.790685,456.598154 319.493935,484.166243 319.493935,492.602426 C319.493935,499.414962 324.102041,507.397541 337.078501,504.883643 C438.740865,470.994775 512,375.068168 512,261.99788 C512,120.609149 397.382372,6 256.00212,6 Z M96.9609936,373.558982 C96.3971683,374.835007 94.3962244,375.212304 92.5733306,374.339011 C90.7165225,373.503871 89.6736576,371.770002 90.2756365,370.493976 C90.8267439,369.184036 92.8319271,368.823697 94.684496,369.692751 C96.5455434,370.53213 97.6053653,372.282956 96.9609936,373.558982 Z M107.330292,385.123759 C106.109377,386.255649 103.722658,385.729977 102.10325,383.940998 C100.428731,382.156258 100.115024,379.769538 101.352896,378.620691 C102.611964,377.488801 104.926616,378.018712 106.605374,379.803453 C108.279892,381.609389 108.606318,383.979151 107.330292,385.123759 Z M117.424036,399.868002 C115.8555,400.957499 113.290731,399.935831 111.705237,397.659333 C110.1367,395.382836 110.1367,392.652734 111.739151,391.558998 C113.328884,390.465262 115.8555,391.448777 117.46219,393.708317 C119.026487,396.018729 119.026487,398.75307 117.424036,399.868002 Z M131.252594,414.11201 C129.849389,415.65935 126.860691,415.2439 124.673219,413.132734 C122.434875,411.068201 121.811699,408.138853 123.219143,406.591513 C124.639304,405.039934 127.64496,405.47658 129.849389,407.570789 C132.070776,409.631083 132.749062,412.581627 131.252594,414.11201 Z M150.329389,422.382861 C149.710453,424.388044 146.831977,425.299491 143.932304,424.447394 C141.03687,423.569861 139.141909,421.221296 139.72693,419.194916 C140.328909,417.177015 143.220103,416.227415 146.140973,417.138862 C149.032167,418.012155 150.931368,420.343763 150.329389,422.382861 Z M171.27995,423.917483 C171.352018,426.028648 168.893231,427.779474 165.849422,427.813389 C162.788657,427.885456 160.312912,426.177023 160.278998,424.099772 C160.278998,421.96741 162.682674,420.233542 165.74344,420.18267 C168.787249,420.12332 171.27995,421.819035 171.27995,423.917483 Z M190.776436,420.59812 C191.141014,422.658414 189.02561,424.773819 186.002997,425.333405 C183.031256,425.880273 180.279959,424.608487 179.902662,422.56515 C179.533844,420.453985 181.687402,418.33858 184.654904,417.791712 C187.681755,417.26604 190.39066,418.503912 190.776436,420.59812 Z" id="Fill-51" sketch:type="MSShapeGroup"></path>
        </g>
    </g>
</svg>