<?xml version="1.0" encoding="UTF-8" standalone="no"?>
<svg width="512px" height="512px" viewBox="0 0 512 512" version="1.1" xmlns="http://www.w3.org/2000/svg" xmlns:xlink="http://www.w3.org/1999/xlink" xmlns:sketch="http://www.bohemiancoding.com/sketch/ns">
    <!-- Generator: Sketch 3.3.3 (12072) - http://www.bohemiancoding.com/sketch -->
    <title>google-shopping</title>
    <desc>Created with Sketch.</desc>
    <defs></defs>
    <g id="Icons" stroke="none" stroke-width="1" fill="none" fill-rule="evenodd" sketch:type="MSPage">
        <g id="google-shopping" sketch:type="MSArtboardGroup" fill="#FFFFFF">
            <g id="google2" sketch:type="MSLayerGroup" transform="translate(89.000000, 0.000000)">
                <g id="Group" sketch:type="MSShapeGroup">
                    <g id="google109">
                        <g>
                            <g id="Group">
                                <path d="M262.56678,292.304337 L238.555498,273.650333 C231.245644,267.591224 221.234322,259.583031 221.234322,244.933122 C221.234322,230.219657 231.240347,220.866172 239.916826,212.201223 C267.879666,190.183989 295.837209,166.752609 295.837209,117.379346 C295.837209,66.6078267 263.891028,39.8979611 248.572117,27.2236187 L289.862198,27.2236187 L333.19692,0 L201.910882,0 C165.886014,0 113.964862,8.5166496 75.9536212,39.8979611 C47.3074685,64.6110749 33.3339939,98.6829697 33.3339939,129.365153 C33.3339939,181.434296 73.3157174,234.223753 143.935264,234.223753 C150.604182,234.223753 157.898145,233.566997 165.239781,232.889054 C161.939752,240.913137 158.607942,247.597224 158.607942,258.931571 C158.607942,279.614106 169.233715,292.293745 178.598804,304.306034 C148.601917,306.371639 92.5914847,309.697794 51.2961063,335.07296 C11.9712103,358.456672 1.84741111e-12,392.486195 1.84741111e-12,416.51607 C1.84741111e-12,465.952891 46.6135621,512 143.257249,512 C257.863047,512 318.529539,448.59651 318.529539,385.823294 C318.540133,339.707331 291.896245,317.012155 262.56678,292.304337 L262.56678,292.304337 Z M175.277587,215.516784 C117.942906,215.516784 91.9717362,141.409221 91.9717362,96.6968108 C91.9717362,79.2821691 95.2717645,61.3061064 106.607335,47.2652867 C117.30197,33.8971128 135.915612,25.2215705 153.295055,25.2215705 C208.563908,25.2215705 237.231249,99.9964828 237.231249,148.082715 C237.231249,160.110894 235.901703,181.429 220.577495,196.84689 C209.861672,207.550963 191.926045,215.516784 175.277587,215.516784 L175.277587,215.516784 Z M175.934415,484.024289 C104.636853,484.024289 58.6642273,449.925912 58.6642273,402.501733 C58.6642273,355.104035 101.294449,339.061167 115.956533,333.759447 C143.929967,324.347702 179.923053,323.039485 185.929846,323.039485 C192.593466,323.039485 195.925277,323.039485 201.232866,323.706835 C251.914521,359.775481 273.912944,377.746248 273.912944,411.892292 C273.918241,453.230881 239.922123,484.024289 175.934415,484.024289 L175.934415,484.024289 Z" id="Shape"></path>
                            </g>
                        </g>
                    </g>
                </g>
            </g>
        </g>
    </g>
</svg>