<?xml version="1.0" encoding="UTF-8"?>
<svg width="200px" height="200px" viewBox="0 0 200 200" version="1.1" xmlns="http://www.w3.org/2000/svg" xmlns:xlink="http://www.w3.org/1999/xlink">
    <!-- Generator: Sketch 48.1 (47250) - http://www.bohemiancoding.com/sketch -->
    <title>social</title>
    <desc>Created with Sketch.</desc>
    <defs></defs>
    <g id="Page-1" stroke="none" stroke-width="1" fill="none" fill-rule="evenodd">
        <g id="social">
            <rect id="Rectangle" fill="#E23D6A" x="0" y="0" width="200" height="200" rx="100"></rect>
            <path d="M135.042747,77.5118949 C138.11098,74.376961 138.04428,69.4411076 134.976046,66.3728744 C131.907813,63.2379404 126.905259,63.2379404 123.837026,66.3061736 C120.768793,69.3077061 120.835493,74.3102603 123.903727,77.4451942 C127.038661,80.5134274 131.974514,80.5134274 135.042747,77.5118949 L135.042747,77.5118949 Z M50.0660275,145.079726 L49.9993268,130.67237 L91.9540808,88.7176162 C89.2193512,78.8459093 91.687278,67.8402902 99.4245617,60.1030065 C110.897086,48.5637816 129.639989,48.697183 141.245914,60.2364079 C152.85184,71.9090343 152.918541,90.6519371 141.446016,102.124461 C133.708733,109.795044 122.769814,112.262971 112.898108,109.594942 L104.493817,117.999233 L91.1536722,117.999233 L91.1536722,128.204444 L81.3486661,128.204444 L81.3486661,138.276253 L71.1434556,138.276253 L71.1434556,148.481463 L53.6678665,148.481463 C50.9998376,148.548164 50.0660275,147.681054 50.0660275,145.079726 L50.0660275,145.079726 Z" id="Shape" fill="#FFFFFF"></path>
        </g>
    </g>
</svg>