<svg width="100" height="100" viewBox="0 0 100 100" fill="none" xmlns="http://www.w3.org/2000/svg">
<rect width="100" height="100" rx="22" fill="#E8306E"/>
<path fill-rule="evenodd" clip-rule="evenodd" d="M66.1194 39.7961C67.5308 38.3736 67.5001 36.1339 66.0888 34.7417C64.6774 33.3193 62.3762 33.3193 60.9649 34.7115C59.5535 36.0734 59.5842 38.3433 60.9956 39.7658C62.4376 41.158 64.7081 41.158 66.1194 39.7961ZM27.0307 70.4549L27 63.9175L46.2989 44.8806C45.041 40.4014 46.1762 35.4076 49.7353 31.8968C55.0126 26.6609 63.6342 26.7214 68.9729 31.9573C74.3115 37.2538 74.3422 45.7583 69.0649 50.964C65.5058 54.4445 60.474 55.5643 55.9331 54.3537L52.0671 58.1671H45.9307V62.7977H41.4205V67.3678H36.7262V71.9984H28.6875C27.4602 72.0287 27.0307 71.6352 27.0307 70.4549Z" fill="white"/>
</svg>
